<svg id="payment" xmlns="http://www.w3.org/2000/svg" width="600" height="420" viewBox="0 0 600 420"><defs><style>.cls-1,.cls-12,.cls-16,.cls-4,.cls-8{fill:#fff;}.cls-1,.cls-28,.cls-29{stroke:#dcdcdc;}.cls-1,.cls-11,.cls-12,.cls-13,.cls-14,.cls-15,.cls-16,.cls-2,.cls-28,.cls-29,.cls-3,.cls-5,.cls-7,.cls-8,.cls-9{stroke-linejoin:round;}.cls-10,.cls-13,.cls-15,.cls-2,.cls-28{fill:#38939b;}.cls-15,.cls-2,.cls-9{stroke:#38939b;}.cls-2,.cls-7,.cls-8{stroke-width:0.1px;}.cls-23,.cls-25,.cls-26,.cls-27,.cls-3,.cls-5,.cls-9{fill:none;}.cls-11,.cls-13,.cls-16,.cls-26,.cls-3,.cls-8{stroke:#fff;}.cls-12,.cls-14,.cls-5,.cls-7{stroke:#1c1c1c;}.cls-11,.cls-14,.cls-6,.cls-7{fill:#1c1c1c;}.cls-14,.cls-15,.cls-16,.cls-25,.cls-26,.cls-27{stroke-width:2px;}.cls-17{fill:#231f20;}.cls-18{fill:#55acee;}.cls-19{fill:#3b5998;}.cls-20{fill:#0077b5;}.cls-21{fill:#ce3636;}.cls-22{fill:#49c1cc;}.cls-24{fill:#ca3737;}.cls-25{stroke:#a2a2a3;}.cls-25,.cls-26{stroke-miterlimit:10;}.cls-27{stroke:#56a4aa;stroke-linecap:square;stroke-linejoin:bevel;}.cls-29{fill:#dcdcdc;}.cls-30{fill:#929497;}</style></defs><title>sprite (1)</title><circle class="cls-1" cx="14.88" cy="225.5" r="12.5"/><path class="cls-2" d="M45.5,62.31a12.19,12.19,0,0,0-8.66,20.76h0A12.19,12.19,0,1,0,45.5,62.31ZM53.72,82a28.35,28.35,0,0,0-4.39-1.84L48,79.73V77.86a3.53,3.53,0,0,0,1.51-3,1.56,1.56,0,0,0,.63-1.39,1.63,1.63,0,0,0-.52-1.32,6.6,6.6,0,0,0,.39-3.38c-0.36-1.41-2.27-1.91-3.79-1.91-1.37,0-3,.4-3.62,1.48a1.48,1.48,0,0,0-1.32.54c-0.64.85-.22,2.4,0,3.26a1.63,1.63,0,0,0-.54,1.32,1.56,1.56,0,0,0,.63,1.39,3.53,3.53,0,0,0,1.51,3v1.88l-1.19.43a29,29,0,0,0-4.47,1.89A11.17,11.17,0,1,1,53.72,82Z"/><circle class="cls-3" cx="15.17" cy="14.97" r="11.5"/><path class="cls-4" d="M19.29,18.44l-0.75-1.28a1.05,1.05,0,0,0-.69-0.5,1.21,1.21,0,0,0-.88.13L16.61,17a22,22,0,0,1-2.18-3.75L14.8,13a1.12,1.12,0,0,0,.47-1.52h0l-0.74-1.28a1.07,1.07,0,0,0-.69-0.5,1.21,1.21,0,0,0-.88.13l-0.76.43a1.67,1.67,0,0,0-.81,1.93A21.7,21.7,0,0,0,16,20.13a1.58,1.58,0,0,0,.81.47,1.76,1.76,0,0,0,1.28-.2L18.83,20a1.21,1.21,0,0,0,.56-0.69A1.08,1.08,0,0,0,19.29,18.44Z"/><circle class="cls-5" cx="15.17" cy="44.62" r="11.5"/><circle class="cls-5" cx="135.35" cy="44.94" r="11.5"/><circle class="cls-5" cx="165.42" cy="45.14" r="11.5"/><path class="cls-6" d="M19.29,48.1l-0.75-1.28a1.05,1.05,0,0,0-.69-0.5,1.21,1.21,0,0,0-.88.13l-0.37.21a22,22,0,0,1-2.18-3.75l0.37-.21a1.12,1.12,0,0,0,.47-1.52h0l-0.74-1.28a1.07,1.07,0,0,0-.69-0.5,1.21,1.21,0,0,0-.88.13l-0.76.43a1.67,1.67,0,0,0-.81,1.93A21.7,21.7,0,0,0,16,49.79a1.58,1.58,0,0,0,.81.47,1.76,1.76,0,0,0,1.28-.2l0.75-.43a1.21,1.21,0,0,0,.56-0.69A1.08,1.08,0,0,0,19.29,48.1Z"/><path class="cls-7" d="M45.48,32.44a12.19,12.19,0,0,0-8.66,20.76h0A12.19,12.19,0,1,0,45.48,32.44ZM53.7,52.17a28.35,28.35,0,0,0-4.39-1.84L48,49.86V48a3.53,3.53,0,0,0,1.51-3,1.56,1.56,0,0,0,.63-1.39,1.63,1.63,0,0,0-.52-1.32A6.6,6.6,0,0,0,50,38.92C49.68,37.51,47.77,37,46.25,37c-1.37,0-3,.4-3.62,1.48a1.48,1.48,0,0,0-1.32.54c-0.64.85-.22,2.4,0,3.26a1.63,1.63,0,0,0-.54,1.32A1.56,1.56,0,0,0,41.43,45a3.53,3.53,0,0,0,1.51,3v1.88l-1.19.43a29,29,0,0,0-4.47,1.89A11.17,11.17,0,1,1,53.7,52.17Z"/><path class="cls-8" d="M45.48,2.56a12.19,12.19,0,0,0-8.66,20.76h0A12.19,12.19,0,1,0,45.48,2.56ZM53.7,22.29a28.35,28.35,0,0,0-4.39-1.84L48,20V18.11a3.53,3.53,0,0,0,1.51-3,1.56,1.56,0,0,0,.63-1.39,1.63,1.63,0,0,0-.52-1.32A6.6,6.6,0,0,0,50,9c-0.36-1.41-2.27-1.91-3.79-1.91-1.37,0-3,.4-3.62,1.48a1.48,1.48,0,0,0-1.32.54c-0.64.85-.22,2.4,0,3.26a1.63,1.63,0,0,0-.54,1.32,1.56,1.56,0,0,0,.63,1.39,3.53,3.53,0,0,0,1.51,3V20l-1.19.43a29,29,0,0,0-4.47,1.89A11.17,11.17,0,1,1,53.7,22.29Z"/><path class="cls-6" d="M265.3,53.34l-4.86-4.28a8,8,0,0,0,1.71-4.94,8.22,8.22,0,1,0-3,6.26l5.06,4.42a0.9,0.9,0,0,0,.54.17,0.92,0.92,0,0,0,.74-0.37,0.9,0.9,0,0,0-.19-1.26h0Zm-17.81-9.22A6.41,6.41,0,1,1,254,50.45H253.9A6.38,6.38,0,0,1,247.49,44.12Z"/><path class="cls-4" d="M265.3,23.79l-4.86-4.28a8,8,0,0,0,1.71-4.94,8.22,8.22,0,1,0-3,6.26l5.06,4.42a0.9,0.9,0,0,0,.54.17,0.92,0.92,0,0,0,.74-0.37,0.9,0.9,0,0,0-.19-1.26h0Zm-17.81-9.22A6.41,6.41,0,1,1,254,20.9H253.9A6.38,6.38,0,0,1,247.49,14.57Z"/><path class="cls-6" d="M142.34,46.14V43.32A3.25,3.25,0,0,0,139,40.14h-7.37a3.25,3.25,0,0,0-3.31,3.18v2.82a3.25,3.25,0,0,0,3.31,3.18h0.74v2.47a0.35,0.35,0,0,0,.23.33,0.33,0.33,0,0,0,.14,0A0.38,0.38,0,0,0,133,52l2.84-2.72H139A3.25,3.25,0,0,0,142.34,46.14Z"/><circle class="cls-3" cx="135.35" cy="14.82" r="11.5"/><path class="cls-4" d="M142.34,16V13.2A3.25,3.25,0,0,0,139,10h-7.37a3.25,3.25,0,0,0-3.31,3.18V16a3.25,3.25,0,0,0,3.31,3.18h0.74v2.47a0.35,0.35,0,0,0,.23.33,0.33,0.33,0,0,0,.14,0,0.38,0.38,0,0,0,.26-0.1l2.84-2.72H139A3.25,3.25,0,0,0,142.34,16Z"/><path id="_" data-name=" " class="cls-6" d="M168.92,45.2l-5.09-6.06-1.8.81,4.36,5.28-4.46,5.1,1.72,0.81Z"/><circle class="cls-9" cx="165.42" cy="74.97" r="11.5"/><path id="_2" data-name=" " class="cls-10" d="M168.92,75L163.83,69l-1.8.81,4.36,5.28-4.46,5.1L163.65,81Z"/><circle class="cls-3" cx="165.42" cy="14.82" r="11.5"/><path id="_3" data-name=" " class="cls-4" d="M168.92,14.87l-5.09-6.06-1.8.81,4.36,5.28L161.93,20l1.72,0.81Z"/><circle class="cls-11" cx="194.91" cy="15.02" r="11.5"/><path id="_4" data-name=" " class="cls-4" d="M197.81,15.06l-4.22-4.84-1.49.65,3.62,4.22L192,19.17l1.43,0.65Z"/><circle class="cls-12" cx="194.91" cy="44.99" r="11.5"/><path id="_5" data-name=" " class="cls-6" d="M197.81,45l-4.22-4.84-1.49.65,3.62,4.22L192,49.14l1.43,0.65Z"/><circle class="cls-13" cx="194.91" cy="74.97" r="11.5"/><path id="_6" data-name=" " class="cls-4" d="M197.81,75l-4.22-4.84-1.49.65L195.71,75,192,79.12l1.43,0.65Z"/><circle class="cls-14" cx="224.96" cy="44.99" r="11.5"/><path id="_7" data-name=" " class="cls-4" d="M228.45,45L223.36,39l-1.8.81,4.36,5.28-4.46,5.1L223.18,51Z"/><circle class="cls-15" cx="224.96" cy="74.97" r="11.5"/><path id="_8" data-name=" " class="cls-4" d="M228.45,75L223.36,69l-1.8.81,4.36,5.28-4.46,5.1L223.18,81Z"/><circle class="cls-16" cx="224.96" cy="15.02" r="11.5"/><path id="_9" data-name=" " class="cls-6" d="M228.45,15.07L223.36,9l-1.8.81,4.36,5.28-4.46,5.1L223.18,21Z"/><path class="cls-17" d="M305.24,36.81h20.38a1.25,1.25,0,0,0,0-2.5H305.24a1.25,1.25,0,0,0,0,2.5h0Z"/><path class="cls-17" d="M305.24,46.39h20.38a1.25,1.25,0,0,0,0-2.5H305.24a1.25,1.25,0,0,0,0,2.5h0Z"/><path class="cls-17" d="M305.24,56h20.38a1.25,1.25,0,0,0,0-2.5H305.24a1.25,1.25,0,0,0,0,2.5h0Z"/><path class="cls-4" d="M305.24,7.15h20.38a1.25,1.25,0,0,0,0-2.5H305.24a1.25,1.25,0,0,0,0,2.5h0Z"/><path class="cls-4" d="M305.24,16.73h20.38a1.25,1.25,0,0,0,0-2.5H305.24a1.25,1.25,0,0,0,0,2.5h0Z"/><path class="cls-4" d="M305.24,26.31h20.38a1.25,1.25,0,0,0,0-2.5H305.24a1.25,1.25,0,0,0,0,2.5h0Z"/><path class="cls-6" d="M80.29,39.43l-0.56,0a0.51,0.51,0,0,0-.32.13l-2.9,2.61-5.69-1.08a0.47,0.47,0,0,0-.44.14l-0.81.81a0.37,0.37,0,0,0,0,.53l0.1,0.07,2.17,1-0.46.46a0.4,0.4,0,0,0,0,.56h0a0.4,0.4,0,0,0,.56,0h0l0.67-.66L74,44.73l-2.22,2.82-1.59-.22a0.35,0.35,0,0,0-.32.11,0.38,0.38,0,0,0,0,.54L69.94,48l1.51,0.74,0.75,1.5a0.36,0.36,0,0,0,.6.09,0.4,0.4,0,0,0,.11-0.32l-0.22-1.58,2.81-2.21,0.65,1.34-0.66.66a0.4,0.4,0,0,0,.57.57l0.46-.46,1,2.17a0.37,0.37,0,0,0,.6.09L79,49.84a0.51,0.51,0,0,0,.14-0.44L78,43.72l2.62-2.9a0.46,0.46,0,0,0,.13-0.32l0-.55a0.47,0.47,0,0,0-.41-0.52H80.29Z"/><circle class="cls-5" cx="75.13" cy="45.1" r="11.5"/><path class="cls-4" d="M80.29,9.2l-0.56,0a0.51,0.51,0,0,0-.32.13L76.51,12l-5.69-1.08a0.47,0.47,0,0,0-.44.14l-0.81.81a0.37,0.37,0,0,0,0,.53l0.1,0.07,2.17,1-0.46.46a0.4,0.4,0,0,0,0,.56h0a0.4,0.4,0,0,0,.56,0h0l0.67-.66L74,14.5l-2.22,2.82-1.59-.22a0.35,0.35,0,0,0-.32.11,0.38,0.38,0,0,0,0,.54l0.08,0.06,1.51,0.74,0.75,1.5a0.36,0.36,0,0,0,.6.09,0.4,0.4,0,0,0,.11-0.32l-0.22-1.58L75.48,16l0.65,1.34L75.47,18a0.4,0.4,0,0,0,.57.57l0.46-.46,1,2.17a0.37,0.37,0,0,0,.6.09L79,19.61a0.51,0.51,0,0,0,.14-0.44L78,13.49l2.62-2.9a0.46,0.46,0,0,0,.13-0.32l0-.55a0.47,0.47,0,0,0-.41-0.52H80.29Z"/><circle class="cls-3" cx="75.13" cy="14.87" r="11.5"/><path class="cls-6" d="M105.88,40a6,6,0,0,1,5.7,6.34H99.09A6.07,6.07,0,0,1,104.73,40a0.58,0.58,0,0,1,.58-0.48A0.56,0.56,0,0,1,105.88,40Zm0-1.19a0.4,0.4,0,0,0,0-.8h-1.08a0.4,0.4,0,0,0,0,.8h1.08Zm6.94,9.91V47.5H97.9v1.19h14.87Z"/><circle class="cls-5" cx="105.33" cy="45.04" r="11.5"/><circle class="cls-3" cx="105" cy="75" r="11.5"/><path class="cls-4" d="M106.42,9.85a6,6,0,0,1,5.7,6.34H99.64a6.07,6.07,0,0,1,5.64-6.34,0.58,0.58,0,0,1,.58-0.48A0.56,0.56,0,0,1,106.42,9.85Zm0-1.19a0.4,0.4,0,0,0,0-.8h-1.08a0.4,0.4,0,0,0,0,.8h1.08Zm6.94,9.91V17.38H98.45v1.19h14.87Z"/><circle class="cls-3" cx="105.88" cy="14.92" r="11.5"/><path class="cls-6" d="M357,39.14a9.25,9.25,0,0,1-2.66.73,4.64,4.64,0,0,0,2-2.56,9.26,9.26,0,0,1-2.94,1.12,4.63,4.63,0,0,0-7.89,4.22,13.14,13.14,0,0,1-9.54-4.84A4.63,4.63,0,0,0,337.49,44a4.61,4.61,0,0,1-2.1-.58v0.06A4.63,4.63,0,0,0,339.11,48a4.63,4.63,0,0,1-2.09.08,4.63,4.63,0,0,0,4.32,3.21,9.34,9.34,0,0,1-6.85,1.92,13.16,13.16,0,0,0,20.26-11.09q0-.3,0-0.6A9.4,9.4,0,0,0,357,39.14Z"/><path class="cls-6" d="M377.61,56.74h-4.1V45.81h-2.73V42h2.73V39.82c0-3.07.83-4.95,4.46-4.95h3v3.77h-1.88c-1.41,0-1.48.53-1.48,1.51V42H381l-0.4,3.77h-3V56.74Z"/><path id="LinkedIn" class="cls-6" d="M416.41,47.89v8.66h-5V48.47c0-2-.73-3.41-2.54-3.41a2.75,2.75,0,0,0-2.57,1.84,3.43,3.43,0,0,0-.17,1.22v8.43h-5s0.07-13.68,0-15.1h5v2.14l0,0h0v0a5,5,0,0,1,4.52-2.49C413.93,41.1,416.41,43.26,416.41,47.89ZM395.83,34.18a2.62,2.62,0,1,0-.07,5.22h0A2.62,2.62,0,1,0,395.83,34.18Zm-2.54,22.37h5V41.45h-5v15.1Z"/><path class="cls-18" d="M357,69a9.25,9.25,0,0,1-2.66.73,4.64,4.64,0,0,0,2-2.56,9.26,9.26,0,0,1-2.94,1.12,4.63,4.63,0,0,0-7.89,4.22,13.14,13.14,0,0,1-9.54-4.84,4.63,4.63,0,0,0,1.43,6.18,4.61,4.61,0,0,1-2.1-.58v0.06a4.63,4.63,0,0,0,3.71,4.54A4.63,4.63,0,0,1,337,78a4.63,4.63,0,0,0,4.32,3.21,9.34,9.34,0,0,1-6.85,1.92A13.16,13.16,0,0,0,354.75,72q0-.3,0-0.6A9.4,9.4,0,0,0,357,69Z"/><path class="cls-19" d="M377.61,86.63h-4.1V75.7h-2.73V71.93h2.73V69.7c0-3.07.83-4.95,4.46-4.95h3v3.77h-1.88c-1.41,0-1.48.53-1.48,1.51v1.89H381l-0.4,3.77h-3V86.63Z"/><path id="LinkedIn-2" data-name="LinkedIn" class="cls-20" d="M416.41,77.78v8.66h-5V78.36c0-2-.73-3.41-2.54-3.41a2.75,2.75,0,0,0-2.57,1.84A3.43,3.43,0,0,0,406.1,78v8.43h-5s0.07-13.68,0-15.1h5v2.14l0,0h0v0A5,5,0,0,1,410.63,71C413.93,71,416.41,73.14,416.41,77.78ZM395.83,64.06a2.62,2.62,0,1,0-.07,5.22h0A2.62,2.62,0,1,0,395.83,64.06Zm-2.54,22.37h5V71.34h-5v15.1Z"/><path class="cls-4" d="M357.1,8.82a9.25,9.25,0,0,1-2.66.73,4.64,4.64,0,0,0,2-2.56,9.26,9.26,0,0,1-2.94,1.12,4.63,4.63,0,0,0-7.89,4.22,13.14,13.14,0,0,1-9.54-4.84,4.63,4.63,0,0,0,1.43,6.18,4.61,4.61,0,0,1-2.1-.58v0.06a4.63,4.63,0,0,0,3.71,4.54,4.63,4.63,0,0,1-2.09.08A4.63,4.63,0,0,0,341.4,21a9.34,9.34,0,0,1-6.85,1.92,13.16,13.16,0,0,0,20.26-11.09q0-.3,0-0.6A9.4,9.4,0,0,0,357.1,8.82Z"/><path class="cls-4" d="M377.67,26.42h-4.1V15.48h-2.73V11.71h2.73V9.49c0-3.07.83-4.95,4.46-4.95h3V8.32h-1.88c-1.41,0-1.48.53-1.48,1.51v1.89h3.39l-0.4,3.77h-3V26.42Z"/><path id="LinkedIn-3" data-name="LinkedIn" class="cls-4" d="M416.47,17.57v8.66h-5V18.15c0-2-.73-3.41-2.54-3.41a2.75,2.75,0,0,0-2.57,1.84,3.43,3.43,0,0,0-.17,1.22v8.43h-5s0.07-13.68,0-15.1h5v2.14l0,0h0v0a5,5,0,0,1,4.52-2.49C414,10.77,416.47,12.93,416.47,17.57ZM395.89,3.85a2.62,2.62,0,1,0-.07,5.22h0A2.62,2.62,0,1,0,395.89,3.85Zm-2.54,22.37h5V11.13h-5v15.1Z"/><path class="cls-4" d="M439.77,3.14h-5.82a8.69,8.69,0,0,0-6,1.9,5.74,5.74,0,0,0-2,4.26,5,5,0,0,0,5.27,5c0.33,0,.69,0,1-0.06l0,0.12a2.64,2.64,0,0,0-.27,1.13,3.2,3.2,0,0,0,.9,2.09l0.06,0.07h-0.1a13.54,13.54,0,0,0-6,1.46A4.56,4.56,0,0,0,424.33,23c0,2.26,2.11,4.55,6.82,4.55,5.48,0,8.35-3,8.35-6,0-2.21-1.3-3.3-2.67-4.46l-1.16-.9a1.72,1.72,0,0,1-.8-1.35,2.16,2.16,0,0,1,.84-1.51l0,0c1.25-1,2.67-2.11,2.67-4.53a5.33,5.33,0,0,0-2.25-4.29h1.93l0.07,0,1.66-1A0.13,0.13,0,0,0,439.77,3.14ZM432.71,26.2c-3.34,0-5.59-1.56-5.59-3.88,0-1.52.92-2.62,2.73-3.27a12.82,12.82,0,0,1,3.34-.51,5.13,5.13,0,0,1,.73,0c2.34,1.66,3.46,2.54,3.46,4.2C437.38,24.88,435.59,26.2,432.71,26.2Zm0-12.79c-2.8,0-4-3.69-4-5.66a3.61,3.61,0,0,1,.7-2.36,2.94,2.94,0,0,1,2.22-1c2.57,0,4,3.46,4,5.85a3.26,3.26,0,0,1-.79,2.32A3.25,3.25,0,0,1,432.68,13.41Z"/><path class="cls-4" d="M447.92,14.53h-3.07V11.48a0.13,0.13,0,0,0-.13-0.13h-1.32a0.13,0.13,0,0,0-.13.13v3.05h-3.05a0.13,0.13,0,0,0-.13.13V16a0.13,0.13,0,0,0,.13.13h3.05v3.07a0.13,0.13,0,0,0,.13.13h1.32a0.13,0.13,0,0,0,.13-0.13V16.12h3.07A0.13,0.13,0,0,0,448,16V14.66A0.13,0.13,0,0,0,447.92,14.53Z"/><path id="Icon" class="cls-4" d="M273.93,25.1l22-22a1.78,1.78,0,0,1,2.51,2.52l-22,22A1.78,1.78,0,0,1,273.93,25.1Zm2.51-22,22,22a1.78,1.78,0,0,1-2.51,2.52l-22-22a1.78,1.78,0,0,1,2.51-2.52h0Z"/><path id="Icon-2" data-name="Icon" class="cls-6" d="M272.92,54.9l22-22a1.78,1.78,0,0,1,2.51,2.52l-22,22A1.78,1.78,0,0,1,272.92,54.9Zm2.51-22,22,22a1.78,1.78,0,0,1-2.51,2.52l-22-22a1.78,1.78,0,0,1,2.51-2.52h0Z"/><path class="cls-10" d="M265.26,83.22l-4.86-4.28A8,8,0,0,0,262.11,74a8.22,8.22,0,1,0-3,6.26l5.06,4.42a0.9,0.9,0,0,0,.54.17,0.92,0.92,0,0,0,.74-0.37,0.9,0.9,0,0,0-.19-1.26h0ZM247.45,74a6.41,6.41,0,1,1,6.49,6.33h-0.08A6.38,6.38,0,0,1,247.45,74Z"/><path class="cls-10" d="M305.19,66.7h20.38a1.25,1.25,0,0,0,0-2.5H305.19a1.25,1.25,0,0,0,0,2.5h0Z"/><path class="cls-10" d="M305.19,76.28h20.38a1.25,1.25,0,0,0,0-2.5H305.19a1.25,1.25,0,0,0,0,2.5h0Z"/><path class="cls-10" d="M305.19,85.86h20.38a1.25,1.25,0,0,0,0-2.5H305.19a1.25,1.25,0,0,0,0,2.5h0Z"/><path id="Icon-3" data-name="Icon" class="cls-10" d="M272.88,84.79l22-22a1.78,1.78,0,0,1,2.51,2.52l-22,22A1.78,1.78,0,0,1,272.88,84.79Zm2.51-22,22,22a1.78,1.78,0,0,1-2.51,2.52l-22-22a1.78,1.78,0,0,1,2.51-2.52h0Z"/><path id="Chevron" class="cls-6" d="M464.14,49.5L468,45.09V44.93l-3.86-4.43-2.14,1L465.07,45,462,48.57Z"/><path class="cls-6" d="M465,31a14,14,0,1,1-14,14,14,14,0,0,1,14-14m0-1a15,15,0,1,0,15,15,15,15,0,0,0-15-15h0Z"/><path id="Chevron-2" data-name="Chevron" class="cls-10" d="M464.07,79.47l3.86-4.41V74.9l-3.86-4.43-2.14,1L465,75l-3.07,3.54Z"/><path class="cls-10" d="M464.93,61a14,14,0,1,1-14,14,14,14,0,0,1,14-14m0-1a15,15,0,1,0,15,15,15,15,0,0,0-15-15h0Z"/><path id="Chevron-3" data-name="Chevron" class="cls-4" d="M464.07,19.47l3.86-4.41V14.9l-3.86-4.43-2.14,1L465,15l-3.07,3.54Z"/><path class="cls-4" d="M464.93,1a14,14,0,1,1-14,14,14,14,0,0,1,14-14m0-1a15,15,0,1,0,15,15,15,15,0,0,0-15-15h0Z"/><path class="cls-6" d="M497.77,18.94h-2v2h2v-2Zm-3,0h-2v2h2v-2Zm3-3h-2v2h2v-2Zm-3,0h-2v2h2v-2Zm-7,8h15v-11h-15v11Zm2-5v-1h2v-2h-2v-1h2v-1h1v1h2v-1h1v1h2v-1h1v1h2v1h-2v2h2v1h-2v2h2v1h-2v1h-1v-1h-2v1h-1v-1h-2v1h-1v-1h-2v-1h2v-2h-2Zm11-10v-2h-4v1h-3v-1h-4v2h-2v3h15v-3h-2Zm-8,1h-2v-2h2v2Zm7,0h-2v-2h2v2Z"/><path class="cls-21" d="M497.77,48.28h-2v2h2v-2Zm-3,0h-2v2h2v-2Zm3-3h-2v2h2v-2Zm-3,0h-2v2h2v-2Zm-7,8h15v-11h-15v11Zm2-5v-1h2v-2h-2v-1h2v-1h1v1h2v-1h1v1h2v-1h1v1h2v1h-2v2h2v1h-2v2h2v1h-2v1h-1v-1h-2v1h-1v-1h-2v1h-1v-1h-2v-1h2v-2h-2Zm11-10v-2h-4v1h-3v-1h-4v2h-2v3h15v-3h-2Zm-8,1h-2v-2h2v2Zm7,0h-2v-2h2v2Z"/><path id="Chevron-4" data-name="Chevron" class="cls-6" d="M524.11,49.5L528,45.09V44.93l-3.86-4.43-2.14,1L525,45,522,48.57Z"/><path id="Chevron-5" data-name="Chevron" class="cls-4" d="M524.07,19.47l3.86-4.41V14.9l-3.86-4.43-2.14,1L525,15l-3.07,3.54Z"/><path id="Chevron-6" data-name="Chevron" class="cls-22" d="M524.11,79.47L528,75.06V74.9l-3.86-4.43-2.14,1L525,75,522,78.54Z"/><path id="Chevron-7" data-name="Chevron" class="cls-10" d="M524.07,109.47l3.86-4.41V104.9l-3.86-4.43-2.14,1L525,105l-3.07,3.54Z"/><circle class="cls-6" cx="546.53" cy="15" r="3"/><circle class="cls-6" cx="555" cy="15" r="3"/><circle class="cls-6" cx="563.47" cy="15" r="3"/><path class="cls-4" d="M109.6,69.72V69l-4,1.73Zm-4.07,10.78,4.68-.64V70.53l-4.68.55v9.42Zm4.68-10.17V69.77l-4.37,1.09ZM105,81l5.76-.91V70.46l-5.76.62V81Zm-4.6-11.3V69l4,1.73ZM104.48,81l-4.68-1.16V70.53l4.68,0.55V81ZM99.79,70.32V69.77l4.37,1.09ZM104.48,81l-5.23-.91V70.46l5.23,0.62V81h0Z"/><path id="Icon-4" data-name="Icon" class="cls-4" d="M273.95,103.74h22.1a1.26,1.26,0,0,1,0,2.52h-22.1A1.26,1.26,0,0,1,273.95,103.74Zm12.31-9.79v22.1a1.26,1.26,0,1,1-2.52,0V93.95A1.26,1.26,0,0,1,286.26,93.95Z"/><path class="cls-4" d="M305,106.25h20.38a1.25,1.25,0,0,0,0-2.5H305a1.25,1.25,0,0,0,0,2.5h0Z"/><path class="cls-23" d="M279.85,30.57a9.06,9.06,0,1,0,9.06,9.06A9.07,9.07,0,0,0,279.85,30.57Zm0,16.59a7.53,7.53,0,1,1,7.53-7.53A7.54,7.54,0,0,1,279.85,47.16Zm0,2.24a0.76,0.76,0,0,0-.76.76v2.21a0.76,0.76,0,0,0,1.53,0V50.16A0.76,0.76,0,0,0,279.85,49.4Zm8.28-2.57a0.76,0.76,0,1,0-1.08,1.08l1.66,1.66a0.76,0.76,0,1,0,1.08-1.08Zm4.44-7.93h-2.21a0.76,0.76,0,0,0,0,1.53h2.21A0.76,0.76,0,0,0,292.57,38.89Zm-5-6.25a0.76,0.76,0,0,0,.54-0.22l1.66-1.66a0.76,0.76,0,1,0-1.08-1.08l-1.66,1.66A0.76,0.76,0,0,0,287.59,32.64Zm-7.74-2.73h0a0.76,0.76,0,0,0,.76-0.76V26.94a0.76,0.76,0,0,0-.76-0.76h0a0.76,0.76,0,0,0-.76.76v2.21A0.76,0.76,0,0,0,279.85,29.91Zm-8.28,2.51a0.76,0.76,0,1,0,1.08-1.08L271,29.68a0.76,0.76,0,1,0-1.08,1.08Zm-1.46,7.23a0.76,0.76,0,0,0-.76-0.76h-2.21a0.76,0.76,0,0,0,0,1.53h2.21A0.76,0.76,0,0,0,270.11,39.66Zm1.46,7.17-1.66,1.66A0.76,0.76,0,1,0,271,49.56l1.66-1.66A0.76,0.76,0,1,0,271.57,46.83Z"/><path class="cls-4" d="M105,95.91a9.06,9.06,0,1,0,9.06,9.06A9.07,9.07,0,0,0,105,95.91Zm0,16.59a7.53,7.53,0,1,1,7.53-7.53A7.54,7.54,0,0,1,105,112.5Zm0,2.24a0.76,0.76,0,0,0-.76.76v2.21a0.76,0.76,0,0,0,1.53,0v-2.21A0.76,0.76,0,0,0,105,114.74Zm8.28-2.57a0.76,0.76,0,1,0-1.08,1.08l1.66,1.66a0.76,0.76,0,1,0,1.08-1.08Zm4.44-7.93h-2.21a0.76,0.76,0,0,0,0,1.53h2.21A0.76,0.76,0,0,0,117.72,104.24Zm-5-6.25a0.76,0.76,0,0,0,.54-0.22l1.66-1.66A0.76,0.76,0,1,0,113.86,95l-1.66,1.66A0.76,0.76,0,0,0,112.74,98ZM105,95.26h0a0.76,0.76,0,0,0,.76-0.76V92.28a0.76,0.76,0,0,0-.76-0.76h0a0.76,0.76,0,0,0-.76.76v2.21A0.76,0.76,0,0,0,105,95.26Zm-8.28,2.51a0.76,0.76,0,1,0,1.08-1.08L96.14,95a0.76,0.76,0,1,0-1.08,1.08ZM95.26,105a0.76,0.76,0,0,0-.76-0.76H92.28a0.76,0.76,0,0,0,0,1.53h2.21A0.76,0.76,0,0,0,95.26,105Zm1.46,7.17-1.66,1.66a0.76,0.76,0,1,0,1.08,1.08l1.66-1.66A0.76,0.76,0,1,0,96.72,112.17Z"/><path class="cls-4" d="M138.89,109.59a0.71,0.71,0,0,0-.76.64v2.42a0.78,0.78,0,0,0,1.53,0v-2.42A0.71,0.71,0,0,0,138.89,109.59Zm-4.5-.14a0.71,0.71,0,0,0-.76.64v5.1a0.78,0.78,0,0,0,1.53,0v-5.1A0.71,0.71,0,0,0,134.39,109.45Zm-4.5,0a0.71,0.71,0,0,0-.76.64v7.52a0.78,0.78,0,0,0,1.53,0v-7.52A0.71,0.71,0,0,0,129.89,109.45Zm16.83-9.6a3.3,3.3,0,0,0-.74-3.34A4.86,4.86,0,0,0,142.34,95h0a8,8,0,0,0-7-3.72c-3.78,0-7,2.34-7.65,5.41-3.37.51-5.83,2.94-5.83,5.86,0,3.28,3.2,6,7.12,6h14c3.23,0,5.85-2.19,5.85-4.89A4.61,4.61,0,0,0,146.73,99.86ZM143,107.21H129c-3.09,0-5.6-2.1-5.6-4.68,0-2.43,2.18-4.43,5.06-4.66a0.71,0.71,0,0,0,.69-0.58c0.27-2.67,3-4.76,6.21-4.76a6.27,6.27,0,0,1,5.81,3.34,0.79,0.79,0,0,0,.81.4,3.3,3.3,0,0,1,2.82,1,2.19,2.19,0,0,1,.36,2.55,0.58,0.58,0,0,0,.27.78,3.5,3.5,0,0,1,1.89,3C147.28,105.59,145.34,107.21,143,107.21Z"/><path class="cls-4" d="M167.87,109.06V94.48a2.87,2.87,0,1,0-5.74,0v14.58a5.27,5.27,0,0,0-2.13,4.25,5,5,0,1,0,10,0A5.27,5.27,0,0,0,167.87,109.06ZM165,117a3.6,3.6,0,0,1-3.53-3.67,3.7,3.7,0,0,1,1.76-3.17,0.77,0.77,0,0,0,.37-0.66v-15a1.4,1.4,0,1,1,2.79,0v15a0.77,0.77,0,0,0,.37.66,3.7,3.7,0,0,1,1.76,3.17A3.6,3.6,0,0,1,165,117Zm0.74-5.37V100a0.74,0.74,0,1,0-1.47,0V111.6a1.88,1.88,0,0,0-1.07,1.7,1.8,1.8,0,1,0,3.6,0A1.88,1.88,0,0,0,165.74,111.6Z"/><path class="cls-6" d="M105.24,126a9.06,9.06,0,1,0,9.06,9.06A9.07,9.07,0,0,0,105.24,126Zm0,16.59a7.53,7.53,0,1,1,7.53-7.53A7.54,7.54,0,0,1,105.24,142.62Zm0,2.24a0.76,0.76,0,0,0-.76.76v2.21a0.76,0.76,0,0,0,1.53,0v-2.21A0.76,0.76,0,0,0,105.24,144.86Zm8.28-2.57a0.76,0.76,0,1,0-1.08,1.08L114.1,145a0.76,0.76,0,1,0,1.08-1.08Zm4.44-7.93h-2.21a0.76,0.76,0,0,0,0,1.53H118A0.76,0.76,0,0,0,118,134.36Zm-5-6.25a0.76,0.76,0,0,0,.54-0.22l1.66-1.66a0.76,0.76,0,1,0-1.08-1.08l-1.66,1.66A0.76,0.76,0,0,0,113,128.11Zm-7.74-2.73h0a0.76,0.76,0,0,0,.76-0.76V122.4a0.76,0.76,0,0,0-.76-0.76h0a0.76,0.76,0,0,0-.76.76v2.21A0.76,0.76,0,0,0,105.24,125.37ZM97,127.88A0.76,0.76,0,1,0,98,126.8l-1.66-1.66a0.76,0.76,0,1,0-1.08,1.08Zm-1.46,7.23a0.76,0.76,0,0,0-.76-0.76H92.52a0.76,0.76,0,0,0,0,1.53h2.21A0.76,0.76,0,0,0,95.5,135.12ZM97,142.29l-1.66,1.66A0.76,0.76,0,1,0,96.38,145L98,143.37A0.76,0.76,0,1,0,97,142.29Z"/><path class="cls-6" d="M139.13,139.71a0.71,0.71,0,0,0-.76.64v2.42a0.78,0.78,0,0,0,1.53,0v-2.42A0.71,0.71,0,0,0,139.13,139.71Zm-4.5-.14a0.71,0.71,0,0,0-.76.64v5.1a0.78,0.78,0,0,0,1.53,0v-5.1A0.71,0.71,0,0,0,134.63,139.57Zm-4.5,0a0.71,0.71,0,0,0-.76.64v7.52a0.78,0.78,0,0,0,1.53,0v-7.52A0.71,0.71,0,0,0,130.13,139.57ZM147,130a3.3,3.3,0,0,0-.74-3.34,4.86,4.86,0,0,0-3.64-1.53h0a8,8,0,0,0-7-3.72c-3.78,0-7,2.34-7.65,5.41-3.37.51-5.83,2.94-5.83,5.86,0,3.28,3.2,6,7.12,6h14c3.23,0,5.85-2.19,5.85-4.89A4.61,4.61,0,0,0,147,130Zm-3.77,7.35h-14c-3.09,0-5.6-2.1-5.6-4.68,0-2.43,2.18-4.43,5.06-4.66a0.71,0.71,0,0,0,.69-0.58c0.27-2.67,3-4.76,6.21-4.76a6.27,6.27,0,0,1,5.81,3.34,0.79,0.79,0,0,0,.81.4,3.3,3.3,0,0,1,2.82,1,2.19,2.19,0,0,1,.36,2.55,0.58,0.58,0,0,0,.27.78,3.5,3.5,0,0,1,1.89,3C147.52,135.71,145.58,137.33,143.2,137.33Z"/><path class="cls-6" d="M168.11,139.18V124.6a2.87,2.87,0,1,0-5.74,0v14.58a5.27,5.27,0,0,0-2.13,4.25,5,5,0,1,0,10,0A5.27,5.27,0,0,0,168.11,139.18Zm-2.87,7.91a3.6,3.6,0,0,1-3.53-3.67,3.7,3.7,0,0,1,1.76-3.17,0.77,0.77,0,0,0,.37-0.66v-15a1.4,1.4,0,1,1,2.79,0v15a0.77,0.77,0,0,0,.37.66,3.7,3.7,0,0,1,1.76,3.17A3.6,3.6,0,0,1,165.24,147.09Zm0.74-5.37V130.13a0.74,0.74,0,1,0-1.47,0v11.59a1.88,1.88,0,0,0-1.07,1.7,1.8,1.8,0,1,0,3.6,0A1.88,1.88,0,0,0,166,141.72Z"/><path d="M435,33.33A11.67,11.67,0,1,0,446.67,45,11.67,11.67,0,0,0,435,33.33Zm1.13,15.59a4.74,4.74,0,0,1-2.34-1.11c-0.46,2.4-1,4.69-2.67,5.89-0.51-3.62.75-6.34,1.33-9.23-1-1.68.12-5.06,2.22-4.23,2.59,1-2.24,6.24,1,6.9s4.77-5.88,2.67-8c-3-3.08-8.83-.07-8.12,4.34,0.17,1.08,1.29,1.4.44,2.89-1.94-.43-2.52-2-2.45-4a6.53,6.53,0,0,1,5.89-6c3.66-.41,7.09,1.34,7.56,4.78C442.23,45,440,49.22,436.13,48.92Z"/><path class="cls-24" d="M435,63.33A11.67,11.67,0,1,0,446.67,75,11.67,11.67,0,0,0,435,63.33Zm1.13,15.59a4.74,4.74,0,0,1-2.34-1.11c-0.46,2.4-1,4.69-2.67,5.89-0.51-3.62.75-6.34,1.33-9.23-1-1.68.12-5.06,2.22-4.23,2.59,1-2.24,6.24,1,6.9s4.77-5.88,2.67-8c-3-3.08-8.83-.07-8.12,4.34,0.17,1.08,1.29,1.4.44,2.89-1.94-.43-2.52-2-2.45-4a6.53,6.53,0,0,1,5.89-6c3.66-.41,7.09,1.34,7.56,4.78C442.23,75,440,79.22,436.13,78.92Z"/><path class="cls-6" d="M19.13,102.23l-2.84-2.91a0.23,0.23,0,0,0-.17-0.07H10.91a0.24,0.24,0,0,0-.24.25v11.14a0.24,0.24,0,0,0,.23.24H19a0.24,0.24,0,0,0,.24-0.24h0V102.4A0.24,0.24,0,0,0,19.13,102.23Zm-3,.17V99.5L19,102.4H16.12Z"/><circle class="cls-5" cx="14.94" cy="105.06" r="11.63"/><circle class="cls-25" cx="75.68" cy="165.04" r="8.72"/><line class="cls-25" x1="75.41" y1="159.07" x2="75.41" y2="165.04"/><line class="cls-25" x1="75.27" y1="164.53" x2="79.36" y2="168.62"/><circle class="cls-26" cx="75.13" cy="194.91" r="8.72"/><line class="cls-26" x1="74.85" y1="188.93" x2="74.85" y2="194.91"/><line class="cls-26" x1="74.71" y1="194.39" x2="78.8" y2="198.48"/><polygon class="cls-27" points="37.99 143.75 37.99 125.1 39.15 124.96 49.02 124.96 50.24 125.1 50.24 142.39 50.24 143.75 44.25 139.12 37.99 143.75"/><polygon class="cls-25" points="37.99 174.02 37.99 155.37 39.15 155.24 49.02 155.24 50.24 155.37 50.24 172.66 50.24 174.02 44.25 169.4 37.99 174.02"/><polygon class="cls-26" points="37.99 204.3 37.99 185.65 39.15 185.51 49.02 185.51 50.24 185.65 50.24 202.94 50.24 204.3 44.25 199.67 37.99 204.3"/><circle class="cls-28" cx="15.08" cy="224.92" r="6.5"/><circle class="cls-1" cx="14.88" cy="255.37" r="12.5"/><path id="Rectangle_5_copy_4" data-name="Rectangle 5 copy 4" class="cls-1" d="M2.5,272.53h25v25H2.5v-25Z"/><path id="Rectangle_5_copy_4-2" data-name="Rectangle 5 copy 4" class="cls-29" d="M2.5,332.36h25v25H2.5v-25Z"/><path id="Rectangle_5_copy_4-3" data-name="Rectangle 5 copy 4" class="cls-28" d="M2.5,302.59h25v25H2.5v-25Z"/><path d="M12.83,321.1a1,1,0,0,1-.73-0.3L9.29,318a1,1,0,1,1,1.45-1.46h0l2,2,6.44-9a1,1,0,1,1,1.67,1.2l-7.14,10a1.05,1.05,0,0,1-.76.43H12.83Z"/><path id="Rectangle_5_copy_4-4" data-name="Rectangle 5 copy 4" class="cls-29" d="M2.5,362.93h25v25H2.5v-25Z"/><path class="cls-30" d="M12.83,381.43a1,1,0,0,1-.73-0.3l-2.81-2.81a1,1,0,1,1,1.45-1.46h0l2,2,6.44-9a1,1,0,1,1,1.67,1.2l-7.14,10a1.05,1.05,0,0,1-.76.43H12.83Z"/></svg>